# xmcd
#
# Track frame offsets:
#	150
#	14701
#	28987
#	42609
#	55538
#	70173
#	82120
#	95860
#	109839
#	122107
#	134593
#	149945
#
# Disc length: 2189 seconds
#
# Revision: 1
# Processed by: cddbd v1.5.2PL0 Copyright (c) Steve Scherf et al.
# Submitted via: EasyCDDAExtractor 12.0.1.1
#
DISCID=c3088b0c
DTITLE=Don Williams - Greatest Hits, Vol. 1 [Cassette]
DYEAR=1975
DGENRE=Country
TTITLE0=Amanda
TTITLE1=Come Early Morning
TTITLE2=The Shelter Of Your Eyes
TTITLE3=Atta Way To Go
TTITLE4=She's In Love With A Rodeo Man
TTITLE5=The Ties That Bind
TTITLE6=I Wouldn't Want To Live If You Didn't Love Me
TTITLE7=We Should Be Together
TTITLE8=Ghost Story
TTITLE9=Don't You Believe
TTITLE10=I Recall A Gypsy Woman
TTITLE11=Down The Road I Go
EXTD=
EXTT0=
EXTT1=
EXTT2=
EXTT3=
EXTT4=
EXTT5=
EXTT6=
EXTT7=
EXTT8=
EXTT9=
EXTT10=
EXTT11=
PLAYORDER=
